<svg width="46" height="19" viewBox="0 0 46 19" fill="none" xmlns="http://www.w3.org/2000/svg">
<path d="M6.75258 15.1579C6.54593 14.9512 6.52714 14.6278 6.69622 14.4L6.75258 14.3347L11.7736 9.31344L6.75258 4.29221C6.54593 4.08555 6.52714 3.76217 6.69622 3.53429L6.75258 3.46901C6.95924 3.26235 7.28262 3.24357 7.5105 3.41265L7.57578 3.46901L13.0086 8.90184C13.2153 9.1085 13.2341 9.43188 13.065 9.65976L13.0086 9.72504L7.57578 15.1579C7.34846 15.3852 6.9799 15.3852 6.75258 15.1579Z" fill="#FAF6FF" fill-opacity="0.18"/>
<path d="M19.9466 15.1579C19.74 14.9512 19.7212 14.6278 19.8903 14.4L19.9466 14.3347L24.9676 9.31344L19.9466 4.29221C19.74 4.08555 19.7212 3.76217 19.8903 3.53429L19.9466 3.46901C20.1533 3.26235 20.4766 3.24357 20.7045 3.41265L20.7698 3.46901L26.2026 8.90184C26.4093 9.1085 26.4281 9.43188 26.259 9.65976L26.2026 9.72504L20.7698 15.1579C20.5425 15.3852 20.1739 15.3852 19.9466 15.1579Z" fill="#FAF6FF" fill-opacity="0.5"/>
<path d="M33.1406 15.1579C32.934 14.9512 32.9152 14.6278 33.0843 14.4L33.1406 14.3347L38.1616 9.31344L33.1406 4.29221C32.934 4.08555 32.9152 3.76217 33.0843 3.53429L33.1406 3.46901C33.3473 3.26235 33.6707 3.24357 33.8986 3.41265L33.9638 3.46901L39.3967 8.90184C39.6033 9.1085 39.6221 9.43188 39.453 9.65976L39.3967 9.72504L33.9638 15.1579C33.7365 15.3852 33.368 15.3852 33.1406 15.1579Z" fill="#FAF6FF"/>
</svg>
