<svg width="40" height="52" viewBox="0 0 40 52" fill="none" xmlns="http://www.w3.org/2000/svg">
<g clip-path="url(#clip0_1_786)">
<path d="M26.3411 19.615C26.1059 19.2571 25.8195 18.9468 25.5536 18.6366C24.8684 17.9207 24.0911 17.4076 23.4366 16.6559C21.9127 14.9139 21.5752 12.0383 22.5468 9.83093C21.5752 10.1054 20.7264 10.7258 20.0002 11.4059C17.3514 13.8878 16.3082 18.2667 17.5559 22.0253C17.5968 22.1446 17.6377 22.2639 17.6377 22.419C17.6377 22.6815 17.4843 22.9201 17.2798 23.0156C17.0445 23.1349 16.7991 23.0633 16.6048 22.8724C16.5434 22.8128 16.5025 22.7531 16.4616 22.6696C15.3059 20.9633 15.1218 18.5173 15.8991 16.5605C14.1911 18.1832 13.2604 20.9275 13.3934 23.5167C13.4548 24.1133 13.5161 24.7099 13.69 25.3065C13.8332 26.0224 14.1093 26.7383 14.4161 27.3707C15.5207 29.4349 17.4332 30.9145 19.4889 31.2127C21.6775 31.5349 24.0195 31.0696 25.6968 29.3037C27.5684 27.323 28.223 24.1491 27.2616 21.4287L27.1286 21.1184C26.9139 20.5696 26.3411 19.615 26.3411 19.615ZM23.1093 27.1321C22.8229 27.4184 22.3525 27.7287 21.9843 27.848C20.8389 28.3253 19.6934 27.6571 19.0184 26.8696C20.2354 26.5355 20.9616 25.4855 21.1764 24.4235C21.3502 23.469 21.0229 22.6815 20.89 21.7628C20.7673 20.8798 20.7877 20.1281 21.0639 19.3048C21.2582 19.7582 21.4627 20.2116 21.7082 20.5696C22.4957 21.7628 23.7332 22.2878 23.9991 23.9105C24.04 24.0775 24.0604 24.2446 24.0604 24.4235C24.0911 25.402 23.7229 26.4758 23.1093 27.1321Z" fill="#D15439"/>
</g>
<path d="M8.24 49V42H10.54C11.0867 42 11.5367 42.09 11.89 42.27C12.2433 42.45 12.5033 42.6933 12.67 43C12.8433 43.3067 12.93 43.6533 12.93 44.04C12.93 44.42 12.8467 44.7633 12.68 45.07C12.5133 45.3767 12.2533 45.6233 11.9 45.81C11.5467 45.99 11.0933 46.08 10.54 46.08H9.08V49H8.24ZM9.08 45.37H10.52C11.08 45.37 11.4767 45.2533 11.71 45.02C11.95 44.78 12.07 44.4533 12.07 44.04C12.07 43.62 11.95 43.2933 11.71 43.06C11.4767 42.82 11.08 42.7 10.52 42.7H9.08V45.37ZM15.3966 49.12C14.9833 49.12 14.64 49.05 14.3666 48.91C14.0933 48.77 13.89 48.5833 13.7566 48.35C13.6233 48.1167 13.5566 47.8633 13.5566 47.59C13.5566 47.0833 13.75 46.6933 14.1366 46.42C14.5233 46.1467 15.05 46.01 15.7166 46.01H17.0566V45.95C17.0566 45.5167 16.9433 45.19 16.7166 44.97C16.49 44.7433 16.1866 44.63 15.8066 44.63C15.48 44.63 15.1966 44.7133 14.9566 44.88C14.7233 45.04 14.5766 45.2767 14.5166 45.59H13.6566C13.69 45.23 13.81 44.9267 14.0166 44.68C14.23 44.4333 14.4933 44.2467 14.8066 44.12C15.12 43.9867 15.4533 43.92 15.8066 43.92C16.5 43.92 17.02 44.1067 17.3666 44.48C17.72 44.8467 17.8966 45.3367 17.8966 45.95V49H17.1466L17.0966 48.11C16.9566 48.39 16.75 48.63 16.4766 48.83C16.21 49.0233 15.85 49.12 15.3966 49.12ZM15.5266 48.41C15.8466 48.41 16.12 48.3267 16.3466 48.16C16.58 47.9933 16.7566 47.7767 16.8766 47.51C16.9966 47.2433 17.0566 46.9633 17.0566 46.67V46.66H15.7866C15.2933 46.66 14.9433 46.7467 14.7366 46.92C14.5366 47.0867 14.4366 47.2967 14.4366 47.55C14.4366 47.81 14.53 48.02 14.7166 48.18C14.91 48.3333 15.18 48.41 15.5266 48.41ZM21.1168 47.44C20.8368 47.44 20.5801 47.4033 20.3468 47.33L19.8468 47.8C19.9201 47.8533 20.0101 47.9 20.1168 47.94C20.2301 47.9733 20.3901 48.0067 20.5968 48.04C20.8035 48.0667 21.0935 48.0967 21.4668 48.13C22.1335 48.1767 22.6101 48.33 22.8968 48.59C23.1835 48.85 23.3268 49.19 23.3268 49.61C23.3268 49.8967 23.2468 50.17 23.0868 50.43C22.9335 50.69 22.6935 50.9033 22.3668 51.07C22.0468 51.2367 21.6335 51.32 21.1268 51.32C20.6801 51.32 20.2835 51.26 19.9368 51.14C19.5901 51.0267 19.3201 50.85 19.1268 50.61C18.9335 50.3767 18.8368 50.08 18.8368 49.72C18.8368 49.5333 18.8868 49.33 18.9868 49.11C19.0868 48.8967 19.2735 48.6933 19.5468 48.5C19.4001 48.44 19.2735 48.3767 19.1668 48.31C19.0668 48.2367 18.9735 48.1567 18.8868 48.07V47.84L19.7368 47C19.3435 46.6667 19.1468 46.2267 19.1468 45.68C19.1468 45.3533 19.2235 45.0567 19.3768 44.79C19.5301 44.5233 19.7535 44.3133 20.0468 44.16C20.3401 44 20.6968 43.92 21.1168 43.92C21.4035 43.92 21.6635 43.96 21.8968 44.04H23.7268V44.67L22.7968 44.71C22.9901 44.99 23.0868 45.3133 23.0868 45.68C23.0868 46.0067 23.0068 46.3033 22.8468 46.57C22.6935 46.8367 22.4701 47.05 22.1768 47.21C21.8901 47.3633 21.5368 47.44 21.1168 47.44ZM21.1168 46.75C21.4701 46.75 21.7501 46.66 21.9568 46.48C22.1701 46.2933 22.2768 46.0267 22.2768 45.68C22.2768 45.34 22.1701 45.08 21.9568 44.9C21.7501 44.7133 21.4701 44.62 21.1168 44.62C20.7568 44.62 20.4701 44.7133 20.2568 44.9C20.0501 45.08 19.9468 45.34 19.9468 45.68C19.9468 46.0267 20.0501 46.2933 20.2568 46.48C20.4701 46.66 20.7568 46.75 21.1168 46.75ZM19.6568 49.64C19.6568 49.9733 19.7968 50.22 20.0768 50.38C20.3568 50.5467 20.7068 50.63 21.1268 50.63C21.5401 50.63 21.8701 50.54 22.1168 50.36C22.3701 50.18 22.4968 49.94 22.4968 49.64C22.4968 49.4267 22.4101 49.24 22.2368 49.08C22.0635 48.9267 21.7435 48.8367 21.2768 48.81C20.9101 48.7833 20.5935 48.75 20.3268 48.71C20.0535 48.8567 19.8735 49.0133 19.7868 49.18C19.7001 49.3533 19.6568 49.5067 19.6568 49.64ZM26.7091 49.12C26.2357 49.12 25.8157 49.0133 25.4491 48.8C25.0824 48.58 24.7924 48.2767 24.5791 47.89C24.3724 47.5033 24.2691 47.0467 24.2691 46.52C24.2691 46 24.3724 45.5467 24.5791 45.16C24.7857 44.7667 25.0724 44.4633 25.4391 44.25C25.8124 44.03 26.2424 43.92 26.7291 43.92C27.2091 43.92 27.6224 44.03 27.9691 44.25C28.3224 44.4633 28.5924 44.7467 28.7791 45.1C28.9657 45.4533 29.0591 45.8333 29.0591 46.24C29.0591 46.3133 29.0557 46.3867 29.0491 46.46C29.0491 46.5333 29.0491 46.6167 29.0491 46.71H25.0991C25.1191 47.09 25.2057 47.4067 25.3591 47.66C25.5191 47.9067 25.7157 48.0933 25.9491 48.22C26.1891 48.3467 26.4424 48.41 26.7091 48.41C27.0557 48.41 27.3457 48.33 27.5791 48.17C27.8124 48.01 27.9824 47.7933 28.0891 47.52H28.9191C28.7857 47.98 28.5291 48.3633 28.1491 48.67C27.7757 48.97 27.2957 49.12 26.7091 49.12ZM26.7091 44.63C26.3091 44.63 25.9524 44.7533 25.6391 45C25.3324 45.24 25.1557 45.5933 25.1091 46.06H28.2291C28.2091 45.6133 28.0557 45.2633 27.7691 45.01C27.4824 44.7567 27.1291 44.63 26.7091 44.63ZM30.9124 49V42.94L29.7824 43.19V42.61L31.1924 42H31.7624V49H30.9124Z" fill="#D15439"/>
<defs>
<clipPath id="clip0_1_786">
<rect x="11.3359" y="2.5" width="24.5455" height="28.6364" rx="4.09091" fill="white"/>
</clipPath>
</defs>
</svg>
