<svg width="40" height="52" viewBox="0 0 40 52" fill="none" xmlns="http://www.w3.org/2000/svg">
<path d="M10.7955 22.7075L11.3068 22.7749L15.9807 18.372C15.7966 17.7458 15.9705 17.0329 16.5125 16.5319C17.3102 15.7708 18.5989 15.7708 19.3966 16.5319C19.9386 17.0329 20.1125 17.7458 19.9284 18.372L22.5568 20.8481L23.0682 20.7806C23.2523 20.7806 23.4261 20.7806 23.5796 20.8481L27.2307 17.4086C27.1591 17.2641 27.1591 17.1003 27.1591 16.9269C27.1591 16.4158 27.3746 15.9257 27.7582 15.5644C28.1418 15.203 28.6621 15 29.2046 15C29.7471 15 30.2673 15.203 30.6509 15.5644C31.0345 15.9257 31.25 16.4158 31.25 16.9269C31.25 17.4379 31.0345 17.928 30.6509 18.2894C30.2673 18.6507 29.7471 18.8538 29.2046 18.8538C29.0205 18.8538 28.8466 18.8538 28.6932 18.7863L25.0421 22.2258C25.1137 22.3703 25.1137 22.5341 25.1137 22.7075C25.1137 23.2185 24.8981 23.7087 24.5146 24.07C24.131 24.4314 23.6107 24.6344 23.0682 24.6344C22.5257 24.6344 22.0054 24.4314 21.6218 24.07C21.2382 23.7087 21.0227 23.2185 21.0227 22.7075L21.0943 22.2258L18.4659 19.7498C18.1386 19.8172 17.7705 19.8172 17.4432 19.7498L12.7693 24.1527L12.8409 24.6344C12.8409 25.1454 12.6254 25.6355 12.2418 25.9969C11.8582 26.3583 11.3379 26.5613 10.7955 26.5613C10.253 26.5613 9.7327 26.3583 9.3491 25.9969C8.9655 25.6355 8.75 25.1454 8.75 24.6344C8.75 24.1233 8.9655 23.6332 9.3491 23.2719C9.7327 22.9105 10.253 22.7075 10.7955 22.7075Z" fill="#B5B5B5" fill-opacity="0.5"/>
<path d="M6.72145 49V42H9.02145C9.56811 42 10.0181 42.09 10.3714 42.27C10.7248 42.45 10.9848 42.6933 11.1514 43C11.3248 43.3067 11.4114 43.6533 11.4114 44.04C11.4114 44.42 11.3281 44.7633 11.1614 45.07C10.9948 45.3767 10.7348 45.6233 10.3814 45.81C10.0281 45.99 9.57478 46.08 9.02145 46.08H7.56145V49H6.72145ZM7.56145 45.37H9.00145C9.56145 45.37 9.95811 45.2533 10.1914 45.02C10.4314 44.78 10.5514 44.4533 10.5514 44.04C10.5514 43.62 10.4314 43.2933 10.1914 43.06C9.95811 42.82 9.56145 42.7 9.00145 42.7H7.56145V45.37ZM13.8781 49.12C13.4648 49.12 13.1214 49.05 12.8481 48.91C12.5748 48.77 12.3714 48.5833 12.2381 48.35C12.1048 48.1167 12.0381 47.8633 12.0381 47.59C12.0381 47.0833 12.2314 46.6933 12.6181 46.42C13.0048 46.1467 13.5314 46.01 14.1981 46.01H15.5381V45.95C15.5381 45.5167 15.4248 45.19 15.1981 44.97C14.9714 44.7433 14.6681 44.63 14.2881 44.63C13.9614 44.63 13.6781 44.7133 13.4381 44.88C13.2048 45.04 13.0581 45.2767 12.9981 45.59H12.1381C12.1714 45.23 12.2914 44.9267 12.4981 44.68C12.7114 44.4333 12.9748 44.2467 13.2881 44.12C13.6014 43.9867 13.9348 43.92 14.2881 43.92C14.9814 43.92 15.5014 44.1067 15.8481 44.48C16.2014 44.8467 16.3781 45.3367 16.3781 45.95V49H15.6281L15.5781 48.11C15.4381 48.39 15.2314 48.63 14.9581 48.83C14.6914 49.0233 14.3314 49.12 13.8781 49.12ZM14.0081 48.41C14.3281 48.41 14.6014 48.3267 14.8281 48.16C15.0614 47.9933 15.2381 47.7767 15.3581 47.51C15.4781 47.2433 15.5381 46.9633 15.5381 46.67V46.66H14.2681C13.7748 46.66 13.4248 46.7467 13.2181 46.92C13.0181 47.0867 12.9181 47.2967 12.9181 47.55C12.9181 47.81 13.0114 48.02 13.1981 48.18C13.3914 48.3333 13.6614 48.41 14.0081 48.41ZM19.5982 47.44C19.3182 47.44 19.0616 47.4033 18.8282 47.33L18.3282 47.8C18.4016 47.8533 18.4916 47.9 18.5982 47.94C18.7116 47.9733 18.8716 48.0067 19.0782 48.04C19.2849 48.0667 19.5749 48.0967 19.9482 48.13C20.6149 48.1767 21.0916 48.33 21.3782 48.59C21.6649 48.85 21.8082 49.19 21.8082 49.61C21.8082 49.8967 21.7282 50.17 21.5682 50.43C21.4149 50.69 21.1749 50.9033 20.8482 51.07C20.5282 51.2367 20.1149 51.32 19.6082 51.32C19.1616 51.32 18.7649 51.26 18.4182 51.14C18.0716 51.0267 17.8016 50.85 17.6082 50.61C17.4149 50.3767 17.3182 50.08 17.3182 49.72C17.3182 49.5333 17.3682 49.33 17.4682 49.11C17.5682 48.8967 17.7549 48.6933 18.0282 48.5C17.8816 48.44 17.7549 48.3767 17.6482 48.31C17.5482 48.2367 17.4549 48.1567 17.3682 48.07V47.84L18.2182 47C17.8249 46.6667 17.6282 46.2267 17.6282 45.68C17.6282 45.3533 17.7049 45.0567 17.8582 44.79C18.0116 44.5233 18.2349 44.3133 18.5282 44.16C18.8216 44 19.1782 43.92 19.5982 43.92C19.8849 43.92 20.1449 43.96 20.3782 44.04H22.2082V44.67L21.2782 44.71C21.4716 44.99 21.5682 45.3133 21.5682 45.68C21.5682 46.0067 21.4882 46.3033 21.3282 46.57C21.1749 46.8367 20.9516 47.05 20.6582 47.21C20.3716 47.3633 20.0182 47.44 19.5982 47.44ZM19.5982 46.75C19.9516 46.75 20.2316 46.66 20.4382 46.48C20.6516 46.2933 20.7582 46.0267 20.7582 45.68C20.7582 45.34 20.6516 45.08 20.4382 44.9C20.2316 44.7133 19.9516 44.62 19.5982 44.62C19.2382 44.62 18.9516 44.7133 18.7382 44.9C18.5316 45.08 18.4282 45.34 18.4282 45.68C18.4282 46.0267 18.5316 46.2933 18.7382 46.48C18.9516 46.66 19.2382 46.75 19.5982 46.75ZM18.1382 49.64C18.1382 49.9733 18.2782 50.22 18.5582 50.38C18.8382 50.5467 19.1882 50.63 19.6082 50.63C20.0216 50.63 20.3516 50.54 20.5982 50.36C20.8516 50.18 20.9782 49.94 20.9782 49.64C20.9782 49.4267 20.8916 49.24 20.7182 49.08C20.5449 48.9267 20.2249 48.8367 19.7582 48.81C19.3916 48.7833 19.0749 48.75 18.8082 48.71C18.5349 48.8567 18.3549 49.0133 18.2682 49.18C18.1816 49.3533 18.1382 49.5067 18.1382 49.64ZM25.1905 49.12C24.7172 49.12 24.2972 49.0133 23.9305 48.8C23.5638 48.58 23.2738 48.2767 23.0605 47.89C22.8538 47.5033 22.7505 47.0467 22.7505 46.52C22.7505 46 22.8538 45.5467 23.0605 45.16C23.2672 44.7667 23.5538 44.4633 23.9205 44.25C24.2938 44.03 24.7238 43.92 25.2105 43.92C25.6905 43.92 26.1038 44.03 26.4505 44.25C26.8038 44.4633 27.0738 44.7467 27.2605 45.1C27.4472 45.4533 27.5405 45.8333 27.5405 46.24C27.5405 46.3133 27.5372 46.3867 27.5305 46.46C27.5305 46.5333 27.5305 46.6167 27.5305 46.71H23.5805C23.6005 47.09 23.6872 47.4067 23.8405 47.66C24.0005 47.9067 24.1972 48.0933 24.4305 48.22C24.6705 48.3467 24.9238 48.41 25.1905 48.41C25.5372 48.41 25.8272 48.33 26.0605 48.17C26.2938 48.01 26.4638 47.7933 26.5705 47.52H27.4005C27.2672 47.98 27.0105 48.3633 26.6305 48.67C26.2572 48.97 25.7772 49.12 25.1905 49.12ZM25.1905 44.63C24.7905 44.63 24.4338 44.7533 24.1205 45C23.8138 45.24 23.6372 45.5933 23.5905 46.06H26.7105C26.6905 45.6133 26.5372 45.2633 26.2505 45.01C25.9638 44.7567 25.6105 44.63 25.1905 44.63ZM31.8739 49V47.5H28.3239V46.85L31.7239 42H32.7039V46.76H33.7439V47.5H32.7039V49H31.8739ZM29.2539 46.76H31.9139V42.93L29.2539 46.76Z" fill="#B5B5B5" fill-opacity="0.5"/>
</svg>
