<svg width="41" height="52" viewBox="0 0 41 52" fill="none" xmlns="http://www.w3.org/2000/svg">
<path d="M29.4497 23.6398L30.9122 22.2621L29.4497 20.8844L25.7986 24.3239L17.0338 16.0672L20.6849 12.6277L19.2224 11.25L17.7599 12.6277L16.2974 11.25L14.1088 13.3118L12.6463 11.934L11.1838 13.3118L12.6463 14.6895L10.4576 16.7512L11.9201 18.129L10.4576 19.5067L11.9201 20.8844L15.5713 17.4449L24.3361 25.7016L20.6849 29.1411L22.1474 30.5188L23.6099 29.1411L25.0724 30.5188L27.2611 28.457L28.7236 29.8347L30.1861 28.457L28.7236 27.0793L30.9122 25.0175L29.4497 23.6398Z" fill="#B5B5B5" fill-opacity="0.5"/>
<path d="M7.55409 49V42H9.85409C10.4008 42 10.8508 42.09 11.2041 42.27C11.5574 42.45 11.8174 42.6933 11.9841 43C12.1574 43.3067 12.2441 43.6533 12.2441 44.04C12.2441 44.42 12.1608 44.7633 11.9941 45.07C11.8274 45.3767 11.5674 45.6233 11.2141 45.81C10.8608 45.99 10.4074 46.08 9.85409 46.08H8.39409V49H7.55409ZM8.39409 45.37H9.83409C10.3941 45.37 10.7908 45.2533 11.0241 45.02C11.2641 44.78 11.3841 44.4533 11.3841 44.04C11.3841 43.62 11.2641 43.2933 11.0241 43.06C10.7908 42.82 10.3941 42.7 9.83409 42.7H8.39409V45.37ZM14.7107 49.12C14.2974 49.12 13.9541 49.05 13.6807 48.91C13.4074 48.77 13.2041 48.5833 13.0707 48.35C12.9374 48.1167 12.8707 47.8633 12.8707 47.59C12.8707 47.0833 13.0641 46.6933 13.4507 46.42C13.8374 46.1467 14.3641 46.01 15.0307 46.01H16.3707V45.95C16.3707 45.5167 16.2574 45.19 16.0307 44.97C15.8041 44.7433 15.5007 44.63 15.1207 44.63C14.7941 44.63 14.5107 44.7133 14.2707 44.88C14.0374 45.04 13.8907 45.2767 13.8307 45.59H12.9707C13.0041 45.23 13.1241 44.9267 13.3307 44.68C13.5441 44.4333 13.8074 44.2467 14.1207 44.12C14.4341 43.9867 14.7674 43.92 15.1207 43.92C15.8141 43.92 16.3341 44.1067 16.6807 44.48C17.0341 44.8467 17.2107 45.3367 17.2107 45.95V49H16.4607L16.4107 48.11C16.2707 48.39 16.0641 48.63 15.7907 48.83C15.5241 49.0233 15.1641 49.12 14.7107 49.12ZM14.8407 48.41C15.1607 48.41 15.4341 48.3267 15.6607 48.16C15.8941 47.9933 16.0707 47.7767 16.1907 47.51C16.3107 47.2433 16.3707 46.9633 16.3707 46.67V46.66H15.1007C14.6074 46.66 14.2574 46.7467 14.0507 46.92C13.8507 47.0867 13.7507 47.2967 13.7507 47.55C13.7507 47.81 13.8441 48.02 14.0307 48.18C14.2241 48.3333 14.4941 48.41 14.8407 48.41ZM20.4309 47.44C20.1509 47.44 19.8942 47.4033 19.6609 47.33L19.1609 47.8C19.2342 47.8533 19.3242 47.9 19.4309 47.94C19.5442 47.9733 19.7042 48.0067 19.9109 48.04C20.1176 48.0667 20.4076 48.0967 20.7809 48.13C21.4476 48.1767 21.9242 48.33 22.2109 48.59C22.4976 48.85 22.6409 49.19 22.6409 49.61C22.6409 49.8967 22.5609 50.17 22.4009 50.43C22.2476 50.69 22.0076 50.9033 21.6809 51.07C21.3609 51.2367 20.9476 51.32 20.4409 51.32C19.9942 51.32 19.5976 51.26 19.2509 51.14C18.9042 51.0267 18.6342 50.85 18.4409 50.61C18.2476 50.3767 18.1509 50.08 18.1509 49.72C18.1509 49.5333 18.2009 49.33 18.3009 49.11C18.4009 48.8967 18.5876 48.6933 18.8609 48.5C18.7142 48.44 18.5876 48.3767 18.4809 48.31C18.3809 48.2367 18.2876 48.1567 18.2009 48.07V47.84L19.0509 47C18.6576 46.6667 18.4609 46.2267 18.4609 45.68C18.4609 45.3533 18.5376 45.0567 18.6909 44.79C18.8442 44.5233 19.0676 44.3133 19.3609 44.16C19.6542 44 20.0109 43.92 20.4309 43.92C20.7176 43.92 20.9776 43.96 21.2109 44.04H23.0409V44.67L22.1109 44.71C22.3042 44.99 22.4009 45.3133 22.4009 45.68C22.4009 46.0067 22.3209 46.3033 22.1609 46.57C22.0076 46.8367 21.7842 47.05 21.4909 47.21C21.2042 47.3633 20.8509 47.44 20.4309 47.44ZM20.4309 46.75C20.7842 46.75 21.0642 46.66 21.2709 46.48C21.4842 46.2933 21.5909 46.0267 21.5909 45.68C21.5909 45.34 21.4842 45.08 21.2709 44.9C21.0642 44.7133 20.7842 44.62 20.4309 44.62C20.0709 44.62 19.7842 44.7133 19.5709 44.9C19.3642 45.08 19.2609 45.34 19.2609 45.68C19.2609 46.0267 19.3642 46.2933 19.5709 46.48C19.7842 46.66 20.0709 46.75 20.4309 46.75ZM18.9709 49.64C18.9709 49.9733 19.1109 50.22 19.3909 50.38C19.6709 50.5467 20.0209 50.63 20.4409 50.63C20.8542 50.63 21.1842 50.54 21.4309 50.36C21.6842 50.18 21.8109 49.94 21.8109 49.64C21.8109 49.4267 21.7242 49.24 21.5509 49.08C21.3776 48.9267 21.0576 48.8367 20.5909 48.81C20.2242 48.7833 19.9076 48.75 19.6409 48.71C19.3676 48.8567 19.1876 49.0133 19.1009 49.18C19.0142 49.3533 18.9709 49.5067 18.9709 49.64ZM26.0231 49.12C25.5498 49.12 25.1298 49.0133 24.7631 48.8C24.3965 48.58 24.1065 48.2767 23.8931 47.89C23.6865 47.5033 23.5831 47.0467 23.5831 46.52C23.5831 46 23.6865 45.5467 23.8931 45.16C24.0998 44.7667 24.3865 44.4633 24.7531 44.25C25.1265 44.03 25.5565 43.92 26.0431 43.92C26.5231 43.92 26.9365 44.03 27.2831 44.25C27.6365 44.4633 27.9065 44.7467 28.0931 45.1C28.2798 45.4533 28.3731 45.8333 28.3731 46.24C28.3731 46.3133 28.3698 46.3867 28.3631 46.46C28.3631 46.5333 28.3631 46.6167 28.3631 46.71H24.4131C24.4331 47.09 24.5198 47.4067 24.6731 47.66C24.8331 47.9067 25.0298 48.0933 25.2631 48.22C25.5031 48.3467 25.7565 48.41 26.0231 48.41C26.3698 48.41 26.6598 48.33 26.8931 48.17C27.1265 48.01 27.2965 47.7933 27.4031 47.52H28.2331C28.0998 47.98 27.8431 48.3633 27.4631 48.67C27.0898 48.97 26.6098 49.12 26.0231 49.12ZM26.0231 44.63C25.6231 44.63 25.2665 44.7533 24.9531 45C24.6465 45.24 24.4698 45.5933 24.4231 46.06H27.5431C27.5231 45.6133 27.3698 45.2633 27.0831 45.01C26.7965 44.7567 26.4431 44.63 26.0231 44.63ZM29.4265 49V48.41C29.8998 48.0367 30.3465 47.66 30.7665 47.28C31.1932 46.8933 31.5698 46.5133 31.8965 46.14C32.2298 45.7667 32.4898 45.4 32.6765 45.04C32.8698 44.68 32.9665 44.3333 32.9665 44C32.9665 43.7533 32.9232 43.5233 32.8365 43.31C32.7565 43.0967 32.6232 42.9267 32.4365 42.8C32.2498 42.6667 31.9965 42.6 31.6765 42.6C31.3698 42.6 31.1132 42.67 30.9065 42.81C30.6998 42.9433 30.5432 43.1233 30.4365 43.35C30.3365 43.5767 30.2865 43.82 30.2865 44.08H29.4765C29.4765 43.62 29.5732 43.2267 29.7665 42.9C29.9598 42.5667 30.2232 42.3133 30.5565 42.14C30.8898 41.9667 31.2665 41.88 31.6865 41.88C32.3065 41.88 32.8132 42.0567 33.2065 42.41C33.6065 42.7567 33.8065 43.2767 33.8065 43.97C33.8065 44.3833 33.7032 44.7933 33.4965 45.2C33.2898 45.6 33.0265 45.99 32.7065 46.37C32.3865 46.7433 32.0432 47.0933 31.6765 47.42C31.3165 47.7467 30.9798 48.04 30.6665 48.3H34.0465V49H29.4265Z" fill="#B5B5B5" fill-opacity="0.5"/>
</svg>
