<svg width="41" height="52" viewBox="0 0 41 52" fill="none" xmlns="http://www.w3.org/2000/svg">
<path d="M12.5663 12.4006C12.3276 12.4006 12.0987 12.4899 11.9299 12.6489C11.7611 12.8079 11.6663 13.0236 11.6663 13.2484V16.6397V17.9115C11.6663 19.3443 12.5933 20.5652 13.9163 21.0654V26.3897C13.9163 26.727 14.0586 27.0505 14.3117 27.289C14.5649 27.5275 14.9083 27.6615 15.2663 27.6615C15.6244 27.6615 15.9677 27.5275 16.2209 27.289C16.4741 27.0505 16.6163 26.727 16.6163 26.3897V21.0654C17.9393 20.5652 18.8663 19.3443 18.8663 17.9115V16.6397V13.2484C18.8663 13.0236 18.7715 12.8079 18.6027 12.6489C18.4339 12.4899 18.205 12.4006 17.9663 12.4006C17.7276 12.4006 17.4987 12.4899 17.3299 12.6489C17.1611 12.8079 17.0663 13.0236 17.0663 13.2484V16.6397C17.0663 16.7522 17.0189 16.86 16.9345 16.9395C16.8501 17.019 16.7357 17.0637 16.6163 17.0637C16.497 17.0637 16.3825 17.019 16.2981 16.9395C16.2137 16.86 16.1663 16.7522 16.1663 16.6397V13.2484C16.1663 13.0236 16.0715 12.8079 15.9027 12.6489C15.7339 12.4899 15.505 12.4006 15.2663 12.4006C15.0276 12.4006 14.7987 12.4899 14.6299 12.6489C14.4611 12.8079 14.3663 13.0236 14.3663 13.2484V16.6397C14.3663 16.7522 14.3189 16.86 14.2345 16.9395C14.1501 17.019 14.0357 17.0637 13.9163 17.0637C13.797 17.0637 13.6825 17.019 13.5981 16.9395C13.5137 16.86 13.4663 16.7522 13.4663 16.6397V13.2484C13.4663 13.0236 13.3715 12.8079 13.2027 12.6489C13.0339 12.4899 12.805 12.4006 12.5663 12.4006ZM27.7583 12.4006C27.6413 12.4006 27.5243 12.4769 27.4163 12.5363L24.2663 14.3082V17.4876H20.6663V19.1832H21.5663L22.4663 27.6615H27.8663L28.7663 19.1832H29.6663V17.4876H26.0663V15.2324L28.3163 13.9606C28.7663 13.7232 28.8833 13.2484 28.6223 12.8245C28.4333 12.5193 28.1003 12.3582 27.7583 12.4006Z" fill="#B5B5B5" fill-opacity="0.5"/>
<path d="M7.14265 49V42H9.44265C9.98932 42 10.4393 42.09 10.7926 42.27C11.146 42.45 11.406 42.6933 11.5726 43C11.746 43.3067 11.8326 43.6533 11.8326 44.04C11.8326 44.42 11.7493 44.7633 11.5826 45.07C11.416 45.3767 11.156 45.6233 10.8026 45.81C10.4493 45.99 9.99598 46.08 9.44265 46.08H7.98265V49H7.14265ZM7.98265 45.37H9.42265C9.98265 45.37 10.3793 45.2533 10.6126 45.02C10.8526 44.78 10.9726 44.4533 10.9726 44.04C10.9726 43.62 10.8526 43.2933 10.6126 43.06C10.3793 42.82 9.98265 42.7 9.42265 42.7H7.98265V45.37ZM14.2993 49.12C13.886 49.12 13.5426 49.05 13.2693 48.91C12.996 48.77 12.7926 48.5833 12.6593 48.35C12.526 48.1167 12.4593 47.8633 12.4593 47.59C12.4593 47.0833 12.6526 46.6933 13.0393 46.42C13.426 46.1467 13.9526 46.01 14.6193 46.01H15.9593V45.95C15.9593 45.5167 15.846 45.19 15.6193 44.97C15.3926 44.7433 15.0893 44.63 14.7093 44.63C14.3826 44.63 14.0993 44.7133 13.8593 44.88C13.626 45.04 13.4793 45.2767 13.4193 45.59H12.5593C12.5926 45.23 12.7126 44.9267 12.9193 44.68C13.1326 44.4333 13.396 44.2467 13.7093 44.12C14.0226 43.9867 14.356 43.92 14.7093 43.92C15.4026 43.92 15.9226 44.1067 16.2693 44.48C16.6226 44.8467 16.7993 45.3367 16.7993 45.95V49H16.0493L15.9993 48.11C15.8593 48.39 15.6526 48.63 15.3793 48.83C15.1126 49.0233 14.7526 49.12 14.2993 49.12ZM14.4293 48.41C14.7493 48.41 15.0226 48.3267 15.2493 48.16C15.4826 47.9933 15.6593 47.7767 15.7793 47.51C15.8993 47.2433 15.9593 46.9633 15.9593 46.67V46.66H14.6893C14.196 46.66 13.846 46.7467 13.6393 46.92C13.4393 47.0867 13.3393 47.2967 13.3393 47.55C13.3393 47.81 13.4326 48.02 13.6193 48.18C13.8126 48.3333 14.0826 48.41 14.4293 48.41ZM20.0194 47.44C19.7394 47.44 19.4828 47.4033 19.2494 47.33L18.7494 47.8C18.8228 47.8533 18.9128 47.9 19.0194 47.94C19.1328 47.9733 19.2928 48.0067 19.4994 48.04C19.7061 48.0667 19.9961 48.0967 20.3694 48.13C21.0361 48.1767 21.5128 48.33 21.7994 48.59C22.0861 48.85 22.2294 49.19 22.2294 49.61C22.2294 49.8967 22.1494 50.17 21.9894 50.43C21.8361 50.69 21.5961 50.9033 21.2694 51.07C20.9494 51.2367 20.5361 51.32 20.0294 51.32C19.5828 51.32 19.1861 51.26 18.8394 51.14C18.4928 51.0267 18.2228 50.85 18.0294 50.61C17.8361 50.3767 17.7394 50.08 17.7394 49.72C17.7394 49.5333 17.7894 49.33 17.8894 49.11C17.9894 48.8967 18.1761 48.6933 18.4494 48.5C18.3028 48.44 18.1761 48.3767 18.0694 48.31C17.9694 48.2367 17.8761 48.1567 17.7894 48.07V47.84L18.6394 47C18.2461 46.6667 18.0494 46.2267 18.0494 45.68C18.0494 45.3533 18.1261 45.0567 18.2794 44.79C18.4328 44.5233 18.6561 44.3133 18.9494 44.16C19.2428 44 19.5994 43.92 20.0194 43.92C20.3061 43.92 20.5661 43.96 20.7994 44.04H22.6294V44.67L21.6994 44.71C21.8928 44.99 21.9894 45.3133 21.9894 45.68C21.9894 46.0067 21.9094 46.3033 21.7494 46.57C21.5961 46.8367 21.3728 47.05 21.0794 47.21C20.7928 47.3633 20.4394 47.44 20.0194 47.44ZM20.0194 46.75C20.3728 46.75 20.6528 46.66 20.8594 46.48C21.0728 46.2933 21.1794 46.0267 21.1794 45.68C21.1794 45.34 21.0728 45.08 20.8594 44.9C20.6528 44.7133 20.3728 44.62 20.0194 44.62C19.6594 44.62 19.3728 44.7133 19.1594 44.9C18.9528 45.08 18.8494 45.34 18.8494 45.68C18.8494 46.0267 18.9528 46.2933 19.1594 46.48C19.3728 46.66 19.6594 46.75 20.0194 46.75ZM18.5594 49.64C18.5594 49.9733 18.6994 50.22 18.9794 50.38C19.2594 50.5467 19.6094 50.63 20.0294 50.63C20.4428 50.63 20.7728 50.54 21.0194 50.36C21.2728 50.18 21.3994 49.94 21.3994 49.64C21.3994 49.4267 21.3128 49.24 21.1394 49.08C20.9661 48.9267 20.6461 48.8367 20.1794 48.81C19.8128 48.7833 19.4961 48.75 19.2294 48.71C18.9561 48.8567 18.7761 49.0133 18.6894 49.18C18.6028 49.3533 18.5594 49.5067 18.5594 49.64ZM25.6117 49.12C25.1384 49.12 24.7184 49.0133 24.3517 48.8C23.985 48.58 23.695 48.2767 23.4817 47.89C23.275 47.5033 23.1717 47.0467 23.1717 46.52C23.1717 46 23.275 45.5467 23.4817 45.16C23.6884 44.7667 23.975 44.4633 24.3417 44.25C24.715 44.03 25.145 43.92 25.6317 43.92C26.1117 43.92 26.525 44.03 26.8717 44.25C27.225 44.4633 27.495 44.7467 27.6817 45.1C27.8684 45.4533 27.9617 45.8333 27.9617 46.24C27.9617 46.3133 27.9584 46.3867 27.9517 46.46C27.9517 46.5333 27.9517 46.6167 27.9517 46.71H24.0017C24.0217 47.09 24.1084 47.4067 24.2617 47.66C24.4217 47.9067 24.6184 48.0933 24.8517 48.22C25.0917 48.3467 25.345 48.41 25.6117 48.41C25.9584 48.41 26.2484 48.33 26.4817 48.17C26.715 48.01 26.885 47.7933 26.9917 47.52H27.8217C27.6884 47.98 27.4317 48.3633 27.0517 48.67C26.6784 48.97 26.1984 49.12 25.6117 49.12ZM25.6117 44.63C25.2117 44.63 24.855 44.7533 24.5417 45C24.235 45.24 24.0584 45.5933 24.0117 46.06H27.1317C27.1117 45.6133 26.9584 45.2633 26.6717 45.01C26.385 44.7567 26.0317 44.63 25.6117 44.63ZM31.3051 49.12C30.8584 49.12 30.4551 49.04 30.0951 48.88C29.7351 48.7133 29.4451 48.4667 29.2251 48.14C29.0117 47.8133 28.8984 47.4067 28.8851 46.92H29.7351C29.7417 47.32 29.8817 47.6667 30.1551 47.96C30.4284 48.2467 30.8117 48.39 31.3051 48.39C31.7984 48.39 32.1684 48.2533 32.4151 47.98C32.6684 47.7067 32.7951 47.3767 32.7951 46.99C32.7951 46.6633 32.7151 46.3967 32.5551 46.19C32.4017 45.9833 32.1917 45.83 31.9251 45.73C31.6651 45.63 31.3784 45.58 31.0651 45.58H30.5451V44.87H31.0651C31.5184 44.87 31.8717 44.7667 32.1251 44.56C32.3851 44.3533 32.5151 44.0633 32.5151 43.69C32.5151 43.3767 32.4117 43.12 32.2051 42.92C32.0051 42.7133 31.7051 42.61 31.3051 42.61C30.9184 42.61 30.6084 42.7267 30.3751 42.96C30.1417 43.1867 30.0117 43.4733 29.9851 43.82H29.1351C29.1551 43.44 29.2551 43.1033 29.4351 42.81C29.6217 42.5167 29.8751 42.29 30.1951 42.13C30.5151 41.9633 30.8851 41.88 31.3051 41.88C31.7584 41.88 32.1351 41.96 32.4351 42.12C32.7417 42.28 32.9717 42.4933 33.1251 42.76C33.2851 43.0267 33.3651 43.32 33.3651 43.64C33.3651 43.9933 33.2684 44.3167 33.0751 44.61C32.8817 44.8967 32.5917 45.09 32.2051 45.19C32.6184 45.2767 32.9617 45.4733 33.2351 45.78C33.5084 46.0867 33.6451 46.49 33.6451 46.99C33.6451 47.3767 33.5551 47.7333 33.3751 48.06C33.2017 48.38 32.9417 48.6367 32.5951 48.83C32.2484 49.0233 31.8184 49.12 31.3051 49.12Z" fill="#B5B5B5" fill-opacity="0.5"/>
</svg>
