<svg width="32" height="32" viewBox="0 0 32 32" fill="none" xmlns="http://www.w3.org/2000/svg">
<rect width="32" height="32" rx="6.4" fill="#3D3D3D"/>
<path d="M16 10.583C15.001 10.583 14.2 11.269 14.2 12.1246C14.2 12.9801 15.001 13.6661 16 13.6661C16.999 13.6661 17.8 12.9801 17.8 12.1246C17.8 11.269 16.999 10.583 16 10.583ZM25 7.5V11.3538H23.2V9.81229H8.8V11.3538H7V7.5H8.8V9.04152H23.2V7.5H25ZM18.7 15.408V24.4568H16.9V20.603H15.1V24.4568H13.3V15.408C11.437 14.5679 10.15 12.8953 10.15 10.9684V10.583H11.95V10.9684C11.95 12.8953 13.75 14.4369 16 14.4369C18.25 14.4369 20.05 12.8953 20.05 10.9684V10.583H21.85V10.9684C21.85 12.8953 20.563 14.5679 18.7 15.408Z" fill="#9E4CB8"/>
</svg>
